<svg width="0" height="0" viewBox="0 0 24 24" fill="currentColor" xmlns="http://www.w3.org/2000/svg">
<path d="M22 22.75H2C1.59 22.75 1.25 22.41 1.25 22C1.25 21.59 1.59 21.25 2 21.25H22C22.41 21.25 22.75 21.59 22.75 22C22.75 22.41 22.41 22.75 22 22.75Z" fill="currentColor"/>
<path d="M20.8901 22.75C20.4801 22.75 20.1401 22.41 20.1401 22V13C20.1401 11.76 18.9801 10.75 17.5601 10.75H6.44011C5.02011 10.75 3.86011 11.76 3.86011 13V22C3.86011 22.41 3.52011 22.75 3.11011 22.75C2.70011 22.75 2.36011 22.41 2.36011 22V13C2.36011 10.93 4.19011 9.25 6.44011 9.25H17.5501C19.8001 9.25 21.6301 10.93 21.6301 13V22C21.6401 22.41 21.3001 22.75 20.8901 22.75Z" fill="currentColor"/>
<path d="M18.4401 10.75C18.0301 10.75 17.6901 10.41 17.6901 10V7.17C17.6901 6.39 16.9401 5.75 16.0301 5.75H7.98006C7.06006 5.75 6.32006 6.39 6.32006 7.17V10C6.32006 10.41 5.98006 10.75 5.57006 10.75C5.16006 10.75 4.81006 10.41 4.81006 10V7.17C4.81006 5.56 6.23006 4.25 7.97006 4.25H16.0201C17.7601 4.25 19.1801 5.56 19.1801 7.17V10C19.1901 10.41 18.8501 10.75 18.4401 10.75Z" fill="currentColor"/>
<path d="M17.33 17.7497C16.17 17.7497 15.23 16.8097 15.23 15.6497V15.3397C15.23 15.0097 14.96 14.7397 14.63 14.7397C14.3 14.7397 14.03 15.0097 14.03 15.3397V15.6497C14.03 16.8097 13.09 17.7497 11.93 17.7497C10.77 17.7497 9.82995 16.8097 9.82995 15.6497V15.3397C9.82995 15.0097 9.55995 14.7397 9.22995 14.7397C8.89995 14.7397 8.62995 15.0097 8.62995 15.3397V15.6497C8.62995 16.8097 7.68995 17.7497 6.52995 17.7497C5.36995 17.7497 4.42995 16.8097 4.42995 15.6497V15.3197C4.42995 14.9997 4.16995 14.7297 3.83995 14.7197H3.46995C3.05995 14.7097 2.71995 14.3697 2.72995 13.9597C2.73995 13.5497 3.06995 13.2197 3.47995 13.2197H3.48995H3.85995C4.99995 13.2397 5.92995 14.1797 5.92995 15.3197V15.6497C5.92995 15.9797 6.19995 16.2497 6.52995 16.2497C6.85995 16.2497 7.12995 15.9797 7.12995 15.6497V15.3397C7.12995 14.1797 8.06995 13.2397 9.22995 13.2397C10.39 13.2397 11.33 14.1797 11.33 15.3397V15.6497C11.33 15.9797 11.6 16.2497 11.93 16.2497C12.26 16.2497 12.53 15.9797 12.53 15.6497V15.3397C12.53 14.1797 13.47 13.2397 14.63 13.2397C15.79 13.2397 16.73 14.1797 16.73 15.3397V15.6497C16.73 15.9797 17 16.2497 17.33 16.2497C17.66 16.2497 17.93 15.9797 17.93 15.6497V15.3397C17.93 14.1797 18.87 13.2397 20.03 13.2397H20.48C20.89 13.2397 21.23 13.5797 21.23 13.9897C21.23 14.3997 20.89 14.7397 20.48 14.7397H20.03C19.7 14.7397 19.43 15.0097 19.43 15.3397V15.6497C19.43 16.8097 18.49 17.7497 17.33 17.7497Z" fill="currentColor"/>
<path d="M8 5.75C7.59 5.75 7.25 5.41 7.25 5V3C7.25 2.59 7.59 2.25 8 2.25C8.41 2.25 8.75 2.59 8.75 3V5C8.75 5.41 8.41 5.75 8 5.75Z" fill="currentColor"/>
<path d="M16 5.75C15.59 5.75 15.25 5.41 15.25 5V3C15.25 2.59 15.59 2.25 16 2.25C16.41 2.25 16.75 2.59 16.75 3V5C16.75 5.41 16.41 5.75 16 5.75Z" fill="currentColor"/>
<path d="M12 5.75C11.59 5.75 11.25 5.41 11.25 5V2C11.25 1.59 11.59 1.25 12 1.25C12.41 1.25 12.75 1.59 12.75 2V5C12.75 5.41 12.41 5.75 12 5.75Z" fill="currentColor"/>
</svg>
