<svg width="0" height="0" viewBox="0 0 16 16" fill="currentColor" xmlns="http://www.w3.org/2000/svg">
<path d="M4.29984 5.66676C4.25984 5.66676 4.21984 5.66008 4.17984 5.65342C4.05318 5.62008 3.93984 5.5401 3.87317 5.42677L2.83317 3.72011C2.57984 3.30677 2.49984 2.81343 2.61984 2.33343C2.73317 1.86009 3.02651 1.45342 3.44651 1.20009C3.85984 0.946753 4.35317 0.866748 4.83317 0.986748C5.31317 1.10008 5.71317 1.39341 5.96651 1.81341L7.0065 3.52011C7.15317 3.75345 7.07317 4.06009 6.83984 4.20676L4.55984 5.59344C4.47984 5.6401 4.39317 5.66676 4.29984 5.66676ZM4.39317 1.93344C4.23984 1.93344 4.09317 1.97344 3.9665 2.05344C3.77984 2.16677 3.64651 2.35341 3.59317 2.56675C3.53984 2.78675 3.57317 3.00675 3.68651 3.19341L4.4665 4.47344L5.89317 3.60674L5.11317 2.32675C4.99984 2.14009 4.81317 2.00676 4.59984 1.95342C4.5265 1.94009 4.45984 1.93344 4.39317 1.93344Z" fill="currentColor"/>
<path d="M7.61323 15.0733C7.41323 15.0733 7.21323 15.0466 7.0199 14.9867C6.43323 14.8133 5.9599 14.4133 5.68657 13.8467L4.3199 11.06C3.59323 9.58001 4.10657 7.82 5.51324 6.96L7.61989 5.68001C9.02656 4.82001 10.8332 5.17333 11.8132 6.5L13.6599 8.99332C14.0332 9.49999 14.1732 10.1067 14.0599 10.7C13.9466 11.2933 13.5866 11.8067 13.0466 12.1333L8.7599 14.74C8.3999 14.96 8.00657 15.0733 7.61323 15.0733ZM9.26656 6.21333C8.8799 6.21333 8.49323 6.31999 8.13323 6.53332L6.02656 7.81331C5.0599 8.39998 4.71323 9.60666 5.20656 10.62L6.57323 13.4067C6.72657 13.7133 6.9799 13.9333 7.29323 14.0266C7.60657 14.12 7.9399 14.0667 8.22656 13.8933L12.5132 11.2867C12.8066 11.1067 12.9999 10.8333 13.0666 10.5133C13.1266 10.1933 13.0532 9.86667 12.8466 9.59334L10.9999 7.10001C10.5799 6.52001 9.93323 6.21333 9.26656 6.21333Z" fill="currentColor"/>
<path d="M5.11996 8.28666C5.07996 8.28666 5.03996 8.27998 4.99996 8.27331C4.8733 8.23998 4.75996 8.16 4.69329 8.04667L3.30664 5.76668C3.15997 5.53334 3.23997 5.22666 3.4733 5.07999L6.88663 2.99999C7.11997 2.85999 7.4333 2.93333 7.5733 3.16666L8.95997 5.44665C9.02663 5.55998 9.0533 5.69332 9.01996 5.82665C8.98663 5.95332 8.90663 6.06667 8.7933 6.13334L5.37997 8.21333C5.29997 8.26667 5.20663 8.28666 5.11996 8.28666ZM4.41997 5.68001L5.28663 7.10664L7.84663 5.54667L6.97997 4.11999L4.41997 5.68001Z" fill="currentColor"/>
<path d="M10.6399 13.5134C10.4733 13.5134 10.3066 13.4267 10.2133 13.2734L9.11328 11.4667C8.96661 11.2334 9.04661 10.9267 9.27994 10.78C9.51328 10.64 9.82661 10.7134 9.96661 10.9467L11.0666 12.7534C11.2133 12.9867 11.1333 13.2934 10.8999 13.44C10.8199 13.4867 10.7266 13.5134 10.6399 13.5134Z" fill="currentColor"/>
<path d="M8.93321 14.5533C8.76655 14.5533 8.59988 14.4666 8.50655 14.3133L7.40655 12.5066C7.25988 12.2733 7.33988 11.9666 7.57322 11.8199C7.80655 11.6799 8.11988 11.7533 8.25988 11.9866L9.35988 13.7933C9.50655 14.0266 9.42655 14.3333 9.19321 14.4799C9.11321 14.5266 9.01988 14.5533 8.93321 14.5533Z" fill="currentColor"/>
<path d="M12.3466 12.4733C12.18 12.4733 12.0133 12.3866 11.92 12.2333L10.82 10.4267C10.6733 10.1933 10.7533 9.88665 10.9866 9.73998C11.22 9.59998 11.5333 9.67332 11.6733 9.90665L12.7733 11.7133C12.92 11.9467 12.84 12.2533 12.6066 12.4C12.5266 12.4466 12.44 12.4733 12.3466 12.4733Z" fill="currentColor"/>
</svg>
