<svg width="0" height="0" viewBox="0 0 20 20" fill="currentColor" xmlns="http://www.w3.org/2000/svg">
<path d="M2.6764 16.0511L2.67637 16.0509L1.56803 9.41765L1.56785 9.41656C1.4982 9.0053 1.5606 8.50671 1.74226 8.02872C1.9239 7.55076 2.20855 7.13609 2.53674 6.8742L2.53743 6.87365L8.31244 2.24861L8.31364 2.24764C9.24458 1.49734 10.7425 1.50111 11.6875 2.25712L11.6877 2.25723L17.4611 6.87265C17.4614 6.87288 17.4616 6.8731 17.4619 6.87332C17.7863 7.13516 18.0693 7.54998 18.2512 8.02872C18.4331 8.50717 18.4977 9.00656 18.4315 9.41889C18.4314 9.41941 18.4313 9.41992 18.4313 9.42043L17.3236 16.0498C17.3235 16.05 17.3235 16.0503 17.3235 16.0505C17.1137 17.2856 15.9132 18.3 14.6665 18.3H5.3332C4.06018 18.3 2.88609 17.3093 2.6764 16.0511ZM8.47208 2.45026L8.47065 2.4514L2.69565 7.07644L2.69565 7.07644L2.6942 7.07761C2.36879 7.34023 2.12501 7.73232 1.9755 8.12368C1.82607 8.51488 1.74626 8.96969 1.81502 9.3822L1.81505 9.3824L2.92338 16.0158L2.92374 16.0178C3.11475 17.1321 4.19717 18.05 5.3332 18.05H14.6665C15.8037 18.05 16.8856 17.1308 17.0761 16.0087L17.0764 16.0074L18.1847 9.37411L18.1847 9.37391C18.2538 8.95973 18.1708 8.50218 18.0208 8.11147C17.8709 7.72088 17.6273 7.32786 17.3047 7.06861L17.3038 7.06783L11.5288 2.45113L11.5288 2.45108L11.5228 2.44646C11.0887 2.11 10.5345 1.95003 9.99155 1.95003C9.45728 1.95003 8.90028 2.10989 8.47208 2.45026Z" fill="currentColor" stroke="currentColor"/>
<path d="M10 13.0417C8.7845 13.0417 7.79169 12.0489 7.79169 10.8333C7.79169 9.61781 8.7845 8.625 10 8.625C11.2155 8.625 12.2084 9.61781 12.2084 10.8333C12.2084 12.0489 11.2155 13.0417 10 13.0417ZM10 8.875C8.92388 8.875 8.04169 9.75719 8.04169 10.8333C8.04169 11.9095 8.92388 12.7917 10 12.7917C11.0762 12.7917 11.9584 11.9095 11.9584 10.8333C11.9584 9.75719 11.0762 8.875 10 8.875Z" fill="currentColor" stroke="currentColor"/>
</svg>
