<svg width="0" height="0" viewBox="0 0 24 24" fill="currentColor" xmlns="http://www.w3.org/2000/svg">
<path d="M12 16.3299C9.61 16.3299 7.67 14.3899 7.67 11.9999C7.67 9.60992 9.61 7.66992 12 7.66992C14.39 7.66992 16.33 9.60992 16.33 11.9999C16.33 14.3899 14.39 16.3299 12 16.3299ZM12 9.16992C10.44 9.16992 9.17 10.4399 9.17 11.9999C9.17 13.5599 10.44 14.8299 12 14.8299C13.56 14.8299 14.83 13.5599 14.83 11.9999C14.83 10.4399 13.56 9.16992 12 9.16992Z" fill="currentColor"/>
<path d="M12 21.0205C8.24 21.0205 4.69 18.8205 2.25 15.0005C1.19 13.3505 1.19 10.6605 2.25 9.00047C4.7 5.18047 8.25 2.98047 12 2.98047C15.75 2.98047 19.3 5.18047 21.74 9.00047C22.8 10.6505 22.8 13.3405 21.74 15.0005C19.3 18.8205 15.75 21.0205 12 21.0205ZM12 4.48047C8.77 4.48047 5.68 6.42047 3.52 9.81047C2.77 10.9805 2.77 13.0205 3.52 14.1905C5.68 17.5805 8.77 19.5205 12 19.5205C15.23 19.5205 18.32 17.5805 20.48 14.1905C21.23 13.0205 21.23 10.9805 20.48 9.81047C18.32 6.42047 15.23 4.48047 12 4.48047Z" fill="currentColor"/>
</svg>
