<svg width="0" height="0" viewBox="0 0 24 24" fill="currentColor" xmlns="http://www.w3.org/2000/svg">
<path d="M12.07 21.9797C10.66 21.9797 9.23997 21.4397 8.16997 20.3697L3.63997 15.8397C2.53997 14.7397 1.95997 13.2197 2.02997 11.6697L2.26997 6.66969C2.37997 4.27969 4.26997 2.38969 6.66997 2.26969L11.67 2.02969C13.22 1.96969 14.74 2.53969 15.84 3.63969L20.37 8.16969C22.52 10.3197 22.52 13.8297 20.37 15.9797L15.98 20.3697C14.9 21.4397 13.49 21.9797 12.07 21.9797ZM4.69997 14.7697L9.22997 19.2997C9.98997 20.0597 11 20.4797 12.07 20.4797C13.14 20.4797 14.15 20.0597 14.91 19.2997L19.3 14.9097C20.06 14.1497 20.48 13.1397 20.48 12.0697C20.48 10.9997 20.06 9.98969 19.3 9.22969L14.77 4.69969C13.97 3.89969 12.86 3.46969 11.74 3.52969L6.73997 3.76969C5.10997 3.83969 3.83997 5.10969 3.75997 6.72969L3.51997 11.7297C3.46997 12.8597 3.89997 13.9697 4.69997 14.7697Z" fill="currentColor"/>
<path d="M9.5 12.75C7.71 12.75 6.25 11.29 6.25 9.5C6.25 7.71 7.71 6.25 9.5 6.25C11.29 6.25 12.75 7.71 12.75 9.5C12.75 11.29 11.29 12.75 9.5 12.75ZM9.5 7.75C8.54 7.75 7.75 8.54 7.75 9.5C7.75 10.46 8.54 11.25 9.5 11.25C10.46 11.25 11.25 10.46 11.25 9.5C11.25 8.54 10.46 7.75 9.5 7.75Z" fill="currentColor"/>
</svg>
